<?xml version="1.0" encoding="utf-8"?>
<!-- Generator: Adobe Illustrator 25.0.0, SVG Export Plug-In . SVG Version: 6.00 Build 0)  -->
<svg version="1.1" id="Camada_1" xmlns="http://www.w3.org/2000/svg" xmlns:xlink="http://www.w3.org/1999/xlink" x="0px" y="0px"
	 viewBox="0 0 250 250" style="enable-background:new 0 0 250 250;" xml:space="preserve">
<style type="text/css">
	.st0{fill:#D2333E;}
	.st1{fill:#FFFFFF;stroke:#1F140F;stroke-width:3;stroke-miterlimit:10;}
	.st2{fill:#E02F40;}
	.st3{fill:#1F140F;}
</style>
<g>
	<g>
		<path class="st0" d="M46.24,234c-1.98,0-3.91-0.14-5.8-0.42c-10.81-1.59-19.98-8.38-23.36-17.29c-3.14-8.3-1.59-18.45,4.39-28.58
			c4.3-7.29,9.43-11.98,15.27-13.94l2.84,8.44c-3.75,1.26-7.26,4.64-10.44,10.03c-2.65,4.49-6.65,13.18-3.73,20.9
			c2.25,5.94,8.66,10.51,16.32,11.63c6.48,0.95,13.78-0.2,22.97-3.64c3.14-1.17,6.32-2.53,9.39-3.84c4.75-2.02,9.66-4.12,14.77-5.71
			c6.28-1.96,13.07-3.29,22.02-4.32c12.14-1.39,27.64,1.3,42.63,3.9c14.99,2.6,30.48,5.29,41.72,3.73
			c18.39-2.55,19.24-13.33,20.14-24.74c0.31-3.94,0.6-7.65,1.75-10.79l3.33,5.95l5.04-2.89c-0.73,1.99-0.97,5.11-1.24,8.42
			c-0.92,11.68-2.31,29.33-27.8,32.87c-12.61,1.75-28.81-1.06-44.47-3.77c-14.37-2.49-29.23-5.07-40.1-3.82
			c-8.37,0.96-14.66,2.19-20.38,3.97c-4.69,1.47-9.18,3.38-13.94,5.41c-3.17,1.35-6.44,2.75-9.77,3.99
			C59.68,232.52,52.68,234,46.24,234z"/>
	</g>
	<g>
		<path class="st0" d="M202.86,157.61c-2.08,0-4.17-0.29-6.27-0.94l2.65-8.5c5.96,1.86,12.81-1.38,19.32-5.16
			c3.91-2.26,7.64-4.55,10.41-7.62c3.82-4.24,5.9-10.18,7.58-15.97c3.6-12.43,5.24-23.24,5.02-33.03
			c-0.27-11.74-3.29-22.39-8.74-30.82c-2.26-3.51-4.61-6.08-7.16-7.87c-4.33-3.04-10-4.31-15.43-5.35
			c-17.48-3.34-36.32-5.04-56.01-5.05c-0.01,0-0.02,0-0.03,0c-21.67,0-34.16,11.19-40.83,20.58l-1.5-5.32l-5.76,0.16
			c11.14-15.69,28.22-24.33,48.09-24.33c0.01,0,0.02,0,0.03,0c20.24,0.01,39.65,1.76,57.68,5.21c6.39,1.22,13.11,2.75,18.88,6.81
			c3.51,2.46,6.62,5.84,9.52,10.33c6.34,9.81,9.85,22.07,10.16,35.45c0.25,10.71-1.51,22.39-5.37,35.71
			c-1.97,6.81-4.49,13.88-9.52,19.46c-3.63,4.03-8.2,6.83-12.56,9.36C216.93,154.24,209.99,157.61,202.86,157.61z"/>
	</g>
	<path class="st1" d="M198.61,119.74c-0.31-5.35,0.44-10.73,2.34-15.73C210.08,80.09,211.78,16,196.43,16
		c-12.73,0-40.49,28.69-54.34,40.94c-4.81,4.26-13.13,3.41-19.52,4.04l-1.73,0.17c-2.72,0.27-5.46,0.27-8.17,0l-1.73-0.17
		c-6.39-0.63-14.71,0.22-19.52-4.04C77.57,44.69,49.81,16,37.08,16c-15.34,0-13.64,64.09-4.52,88.01
		c1.91,5.01,2.66,10.38,2.34,15.73c-0.52,8.98-1.55,22.23-3.42,32.4c-1.85,10.05,2.92,35.42,18.52,41.66
		c19.14,7.67,32.16,1,38.01,5.84c5.85,4.84,21.93,11.44,28.75,6.6c6.82,4.84,22.9-1.76,28.75-6.6c5.85-4.84,18.87,1.83,38.01-5.84
		c15.59-6.25,20.37-31.61,18.52-41.66C200.17,141.98,199.14,128.72,198.61,119.74z"/>
	<path class="st2" d="M52.61,97.99c-3.26,1.59-7.58,4.55-10.66,2.64c-2.56-1.58-3.74-4.18-4.67-7.03
		c-3.38-10.4-3.79-14.67-5.64-24.57c-1.1-5.85-1.34-17.69-1.05-23.63c0.31-6.35,2.2-12.51,4.15-18.57c0.48-1.48,1.5-2.75,2.9-3.42
		c0.42-0.2,0.86-0.34,1.29-0.37c2.85-0.19,5.02,0.24,7.22,2.06c1.07,0.89,2.76,1.99,3.54,3.15c3.3,4.88,6.61,9.77,9.91,14.65
		c2.95,4.37,5.92,8.75,9.42,12.68C73.85,61,90.25,72.1,85.66,81.35c-1.61,3.24-4.41,0.32-16.9,6.96
		C62.93,91.4,58.54,95.1,52.61,97.99z"/>
	<g>
		<path class="st2" d="M103.99,174.36c0,0-1.57-23.11-16.95-27.47c-13.29-3.77-35.38-7.36-37.53-13.11c0,0,1.8,21.55,16.16,26.94
			c11.07,4.15,21.62,6.61,29.32,9.72c3.53,1.43,6.63,3.73,9.01,6.71l0,0V174.36z"/>
		<path class="st3" d="M103.42,174.38c-0.94-5.99-3.23-11.93-6.5-16.73c-1.64-2.4-3.54-4.51-5.74-6.07
			c-1.1-0.78-2.27-1.42-3.51-1.93c-1.17-0.45-2.73-0.87-4.2-1.27c-5.93-1.59-11.98-3.11-17.97-5c-2.99-0.96-5.98-1.99-8.88-3.32
			c-1.45-0.67-2.89-1.39-4.25-2.32c-0.67-0.47-1.35-0.96-1.93-1.58c-0.58-0.61-1.14-1.32-1.4-2.21l0,0l0.97-0.22
			c1.4,6.02,3.5,11.94,6.78,16.85c1.66,2.43,3.62,4.6,5.93,6.15c1.16,0.77,2.39,1.4,3.68,1.88c1.44,0.53,2.91,1.04,4.37,1.53
			c5.87,1.98,11.84,3.78,17.79,5.94c1.48,0.55,2.97,1.13,4.44,1.75c0.74,0.31,1.46,0.65,2.19,0.99c0.73,0.34,1.5,0.73,2.21,1.16
			c2.86,1.73,5.3,4.08,6.98,6.84l0,0l0,0l0,0c0.19-0.07-1.69,0.59-0.89,0.31l0,0l0-0.01l0-0.02l0-0.04l0-0.09l0-0.17l0-0.35
			l-0.02-0.69L103.42,174.38z M104.56,174.34l-0.06,1.41l-0.02,0.7l0,0.35l0,0.18l0,0.09l0,0.04l0,0.02l0,0.01l0,0
			c0.8-0.28-1.08,0.38-0.89,0.31l0,0l0,0l0,0c-2.25-2.12-4.76-3.83-7.49-4.94c-1.33-0.57-2.8-0.99-4.29-1.43
			c-1.47-0.45-2.96-0.88-4.46-1.28c-5.98-1.66-12.08-3.28-18.06-5.39c-1.5-0.53-2.98-1.07-4.48-1.65c-1.65-0.63-3.18-1.52-4.58-2.56
			c-1.39-1.04-2.65-2.24-3.75-3.54c-1.09-1.31-2.01-2.72-2.83-4.17c-1.64-2.9-2.72-6.01-3.49-9.14c-0.73-3.15-1.18-6.32-1.16-9.54
			l0.01-1.64l0.96,1.42l0,0c0.3,0.58,0.85,1.04,1.43,1.43c0.58,0.4,1.23,0.74,1.91,1.04c1.36,0.59,2.78,1.08,4.24,1.51
			c2.91,0.85,5.91,1.54,8.92,2.19c6.02,1.32,12.11,2.46,18.21,3.99c1.54,0.4,3,0.73,4.74,1.35c1.67,0.61,3.22,1.52,4.62,2.57
			c2.84,2.11,4.89,4.97,6.38,7.92c1.48,2.98,2.39,6.12,3.03,9.25c0.31,1.57,0.57,3.14,0.75,4.71
			C104.38,171.17,104.53,172.7,104.56,174.34z"/>
	</g>
	<path class="st2" d="M100.29,130.56c-0.83-0.78-1.81-1.2-2.75-1.84c-1.26-0.86-2.54-1.81-3.96-2.39l-4.74-1.95
		c-1.17-0.48-2.39,0.6-2.05,1.82c0.15,0.52,0.4,1.03,0.72,1.45c0.87,1.13,2.12,1.89,3.19,2.84c0.91,0.81,1.87,1.35,2.85,2.07
		c1.4,1.02,2.94,1.89,4.61,2.33c1.06,0.28,3.25,0.74,3.97-0.48C102.93,133.05,101.15,131.37,100.29,130.56z"/>
	<path class="st3" d="M115,195.67l-3.05-0.75c0,0-5.78-1.75-4.76,1.33c1.02,3.09,1.29-0.42,2.22-0.25c0.92,0.17,4.85,0.29,5.78,1.21
		c0.92,0.92,1.02,2.38,1.02,3.88s-0.42,4.59-0.42,4.59l0.02,0c-0.02,0.03-0.03,0.05-0.05,0.07c-0.29,0.32-0.67,0.56-1.07,0.71
		c-0.77,0.29-2.35,0.5-3.17,0.52c-7.68,0.15-12.65-2.67-19.89-6.4c-0.27-0.14-2.06-1.54-2.54-2.22c-0.16-0.22-0.6-1.09-0.72-1.34
		c-0.7-1.43-1.5-2.81-2.4-4.12c-0.89-1.29-1.72-2.13-3.56-3.1c-1.25-0.66-2.39-1.15-3.75-1.52c-0.99-0.27-5.12-1.01-6.06-0.59
		c-0.37,0.17-0.72,0.45-0.83,0.84c-0.14,0.53,0.25,1.09,0.74,1.34s1.08,0.36,1.62,0.26c1.96-0.36,1.16-1.11,2.97-0.73
		c1.8,0.38,5.73,1.49,7.37,3.65c1.2,1.56,2.37,4.19,2.94,5.38c0.12,0.25,0.89,1.46,1.05,1.59c6.19,4.79,21.64,10.94,28.29,6.23
		v-0.76v-0.57v-9.23H115z"/>
	<g>
		<path class="st2" d="M62.22,178.51c-0.65-0.44-0.67-0.73-0.63-1.05c0.02-0.31,0.03-0.63,0.02-0.94c-0.02-0.63-0.11-1.26-0.26-1.87
			c-0.29-1.23-0.83-2.41-1.58-3.44c-1.42-2.1-3.96-3.29-6.41-4.92c-2.5-1.64-4.57-3.92-6.01-6.49c-1.41-2.59-2.28-5.47-2.33-8.37
			l0.5-0.04c0.43,2.78,1.44,5.43,3,7.7c1.52,2.29,3.54,4.2,5.87,5.57c1.18,0.7,2.46,1.33,3.73,2.12c1.26,0.78,2.53,1.78,3.49,3.05
			c0.96,1.26,1.66,2.7,2.06,4.23c0.2,0.76,0.33,1.55,0.37,2.34c0.02,0.4,0.03,0.8,0.01,1.19c0.01,0.4-0.11,0.81-0.85,1.07
			L62.22,178.51z"/>
	</g>
	<g>
		<path class="st2" d="M55.43,180.45c-0.59-0.16-0.71-0.26-0.73-0.38c0-0.12-0.03-0.24-0.04-0.37c-0.05-0.25-0.11-0.49-0.2-0.74
			c-0.19-0.5-0.47-0.99-0.81-1.45c-0.68-0.93-1.64-1.73-2.67-2.57c-1.01-0.83-2.14-1.76-3.04-2.87c-0.91-1.08-1.66-2.17-2.4-3.31
			c-0.75-1.13-1.51-2.24-2.24-3.38c-0.68-1.18-1.29-2.41-1.81-3.66c-1-2.53-1.7-5.17-1.97-7.84l0.37-0.06
			c0.64,2.57,1.52,5.07,2.74,7.39c0.59,1.17,1.24,2.29,1.97,3.37c0.78,1.06,1.61,2.09,2.4,3.13c0.8,1.03,1.63,2.1,2.47,3.02
			c0.83,0.92,1.81,1.66,2.89,2.47c1.06,0.81,2.2,1.69,3.14,2.89c0.47,0.59,0.88,1.25,1.19,1.99c0.15,0.37,0.27,0.77,0.36,1.17
			c0.04,0.21,0.07,0.41,0.09,0.62c0.02,0.21-0.12,0.44-0.7,0.61L55.43,180.45z"/>
	</g>
	<g>
		<path class="st2" d="M47.97,182.65c-0.8,0.07-1.1-0.14-1.28-0.43l-0.53-0.86c-0.36-0.57-0.74-1.13-1.14-1.67
			c-0.4-0.54-0.79-1.09-1.21-1.63c-0.44-0.56-0.89-1.11-1.32-1.68c-0.43-0.58-0.88-1.09-1.28-1.74c-0.39-0.63-0.74-1.29-1.05-1.96
			c-0.59-1.35-1.02-2.76-1.18-4.2l0.59-0.16c0.58,1.27,1.23,2.47,2,3.57c0.75,1.12,1.64,2.08,2.65,3.07c0.49,0.49,0.96,1,1.43,1.5
			c0.49,0.53,0.99,1.07,1.44,1.64c0.45,0.57,0.89,1.16,1.31,1.75l0.61,0.91c0.2,0.31,0.26,0.7-0.19,1.38L47.97,182.65z"/>
	</g>
	<path class="st3" d="M77.12,68.96c-8.2-1.58-16.2-4.19-23.75-7.75c-0.73,3.3,0.18,6.92,2.37,9.48c1.73,2.02,4.17,3.4,5.57,5.66
		c3.39,6.99-10.48-1.73-14.64-3c-0.63,1.95,0.73,6.82,4.87,7.89c3.62,0.93,6.93,7.06,4.22,9.49c-2.19,1.62-6.74,0.41-12.74-13.34
		c-1.8-4.11-3.15-8.4-4.86-12.55c-0.12-0.3-0.27-0.62-0.56-0.77c-0.65-0.33-1.3,0.46-1.6,1.12c-1.43,3.17-2.46,6.48-3.27,9.86
		c1.1,6.14,1.94,10.53,4.55,18.56c0.93,2.85,2.11,5.45,4.67,7.03c3.09,1.91,7.4-1.05,10.66-2.64c5.93-2.9,10.32-6.59,16.14-9.69
		c12.49-6.64,15.29-3.72,16.9-6.96c1.72-3.47,0.5-7.19-1.97-10.78C81.59,69.75,79.34,69.38,77.12,68.96z"/>
	<path class="st2" d="M180.9,97.99c3.26,1.59,7.58,4.55,10.66,2.64c2.56-1.58,3.74-4.18,4.67-7.03c3.38-10.4,3.79-14.67,5.64-24.57
		c1.1-5.85,1.34-17.69,1.05-23.63c-0.31-6.35-2.2-12.51-4.15-18.57c-0.48-1.48-1.5-2.75-2.91-3.42c-0.42-0.2-0.86-0.34-1.29-0.37
		c-2.85-0.19-5.91,0.18-8.11,1.99c-1.07,0.89-1.87,2.06-2.65,3.21c-3.3,4.88-6.61,9.77-9.91,14.65c-2.95,4.37-5.92,8.75-9.42,12.68
		c-4.82,5.41-21.23,16.52-16.63,25.76c1.61,3.24,4.41,0.32,16.9,6.96C170.58,91.4,174.97,95.1,180.9,97.99z"/>
	<g>
		<path class="st2" d="M129.52,174.36c0,0,1.57-23.11,16.95-27.47c13.29-3.77,35.38-7.36,37.53-13.11c0,0-1.8,21.55-16.16,26.94
			c-11.07,4.15-21.62,6.61-29.32,9.72c-3.53,1.43-6.63,3.73-9.01,6.71l0,0V174.36z"/>
		<path class="st3" d="M128.95,174.34c0.03-1.64,0.18-3.17,0.36-4.76c0.18-1.57,0.44-3.14,0.75-4.71c0.64-3.13,1.54-6.27,3.03-9.25
			c1.49-2.95,3.54-5.81,6.38-7.92c1.41-1.05,2.96-1.96,4.62-2.57c1.75-0.62,3.2-0.95,4.74-1.35c6.1-1.53,12.19-2.67,18.21-3.99
			c3.01-0.65,6-1.34,8.92-2.19c1.45-0.43,2.88-0.92,4.24-1.51c0.67-0.3,1.32-0.65,1.91-1.04c0.59-0.39,1.13-0.86,1.43-1.43l0,0
			l0.96-1.42l0.01,1.64c0.02,3.22-0.43,6.39-1.16,9.54c-0.77,3.13-1.86,6.24-3.49,9.14c-0.81,1.45-1.74,2.86-2.83,4.17
			c-1.1,1.3-2.36,2.5-3.75,3.54c-1.4,1.04-2.93,1.93-4.58,2.56c-1.5,0.58-2.98,1.12-4.48,1.65c-5.98,2.11-12.08,3.73-18.06,5.39
			c-1.5,0.4-2.99,0.83-4.46,1.28c-1.48,0.45-2.96,0.86-4.29,1.43c-2.73,1.11-5.24,2.82-7.49,4.94l0,0l0,0l0,0
			c0.19,0.07-1.69-0.59-0.89-0.31v0l0-0.01l0-0.02l0-0.04l0-0.09l0-0.18l0-0.35l-0.02-0.7L128.95,174.34z M130.1,174.38l-0.06,1.39
			l-0.02,0.69l0,0.35l0,0.17l0,0.09l0,0.04l0,0.02l0,0.01v0c0.8,0.28-1.08-0.38-0.89-0.31l0,0l0,0l0,0
			c1.68-2.77,4.12-5.12,6.98-6.84c0.71-0.43,1.48-0.82,2.21-1.16c0.73-0.34,1.45-0.68,2.19-0.99c1.48-0.61,2.96-1.19,4.44-1.75
			c5.95-2.16,11.92-3.97,17.79-5.94c1.46-0.49,2.93-1,4.37-1.53c1.28-0.49,2.52-1.11,3.68-1.88c2.32-1.55,4.28-3.71,5.93-6.15
			c3.28-4.91,5.38-10.83,6.78-16.85l0.97,0.22l0,0c-0.25,0.89-0.81,1.6-1.4,2.21c-0.59,0.62-1.26,1.11-1.93,1.58
			c-1.36,0.93-2.8,1.65-4.25,2.32c-2.91,1.33-5.89,2.36-8.88,3.32c-5.99,1.89-12.04,3.4-17.97,5c-1.46,0.4-3.03,0.82-4.2,1.27
			c-1.23,0.5-2.41,1.14-3.51,1.93c-2.2,1.56-4.11,3.67-5.74,6.07C133.32,162.44,131.04,168.39,130.1,174.38z"/>
	</g>
	<path class="st2" d="M133.23,130.56c0.83-0.78,1.81-1.2,2.75-1.84c1.26-0.86,2.54-1.81,3.96-2.39l4.74-1.95
		c1.17-0.48,2.39,0.6,2.05,1.82c-0.15,0.52-0.4,1.03-0.72,1.45c-0.87,1.13-2.12,1.89-3.19,2.84c-0.91,0.81-1.87,1.35-2.85,2.07
		c-1.4,1.02-2.94,1.89-4.61,2.33c-1.06,0.28-3.25,0.74-3.97-0.48C130.58,133.05,132.36,131.37,133.23,130.56z"/>
	<path class="st3" d="M118.51,195.67l3.05-0.75c0,0,5.78-1.75,4.76,1.33s-1.29-0.42-2.22-0.25c-0.92,0.17-4.85,0.29-5.78,1.21
		c-0.92,0.92-1.02,2.38-1.02,3.88s0.42,4.59,0.42,4.59l-0.02,0c0.02,0.03,0.03,0.05,0.05,0.07c0.29,0.32,0.67,0.56,1.07,0.71
		c0.77,0.29,2.35,0.5,3.17,0.52c7.68,0.15,12.65-2.67,19.89-6.4c0.27-0.14,2.06-1.54,2.54-2.22c0.16-0.22,0.6-1.09,0.72-1.34
		c0.7-1.43,1.5-2.81,2.4-4.12c0.89-1.29,1.72-2.13,3.56-3.1c1.25-0.66,2.39-1.15,3.75-1.52c0.99-0.27,5.12-1.01,6.06-0.59
		c0.37,0.17,0.72,0.45,0.83,0.84c0.14,0.53-0.25,1.09-0.74,1.34c-0.49,0.25-1.08,0.36-1.62,0.26c-1.96-0.36-1.16-1.11-2.97-0.73
		c-1.8,0.38-5.73,1.49-7.37,3.65c-1.2,1.56-2.37,4.19-2.94,5.38c-0.12,0.25-0.89,1.46-1.05,1.59c-6.19,4.79-21.64,10.94-28.29,6.23
		v-0.76v-0.57v-9.23H118.51z"/>
	<g>
		<path class="st2" d="M170.3,178.67c-0.74-0.26-0.86-0.68-0.85-1.07c-0.02-0.4-0.02-0.8,0.01-1.19c0.04-0.79,0.17-1.58,0.37-2.34
			c0.4-1.53,1.1-2.97,2.06-4.23c0.96-1.27,2.23-2.27,3.49-3.05c1.27-0.79,2.55-1.43,3.73-2.12c2.33-1.37,4.35-3.28,5.87-5.57
			c1.56-2.27,2.57-4.92,3-7.7l0.5,0.04c-0.05,2.9-0.92,5.79-2.33,8.37c-1.44,2.57-3.51,4.84-6.01,6.49
			c-2.45,1.63-4.99,2.82-6.41,4.92c-0.74,1.02-1.29,2.2-1.58,3.44c-0.15,0.62-0.24,1.25-0.26,1.87c-0.01,0.31-0.01,0.63,0.02,0.94
			c0.04,0.32,0.02,0.61-0.63,1.05L170.3,178.67z"/>
	</g>
	<g>
		<path class="st2" d="M177.08,180.48c-0.59-0.17-0.72-0.41-0.7-0.61c0.01-0.21,0.05-0.42,0.09-0.62c0.09-0.41,0.21-0.8,0.36-1.17
			c0.31-0.74,0.72-1.4,1.19-1.99c0.94-1.19,2.09-2.08,3.14-2.89c1.08-0.81,2.06-1.55,2.89-2.47c0.84-0.92,1.67-1.99,2.47-3.02
			c0.8-1.04,1.63-2.07,2.4-3.13c0.73-1.08,1.39-2.2,1.97-3.37c1.23-2.31,2.1-4.81,2.74-7.39l0.37,0.06
			c-0.27,2.68-0.98,5.31-1.97,7.84c-0.52,1.26-1.13,2.48-1.81,3.66c-0.72,1.14-1.49,2.25-2.24,3.38c-0.75,1.14-1.49,2.22-2.4,3.31
			c-0.91,1.1-2.03,2.03-3.04,2.87c-1.03,0.84-1.98,1.64-2.67,2.57c-0.35,0.46-0.63,0.96-0.81,1.45c-0.09,0.25-0.16,0.5-0.2,0.74
			c-0.02,0.12-0.04,0.25-0.04,0.37c-0.02,0.12-0.14,0.22-0.73,0.38L177.08,180.48z"/>
	</g>
	<g>
		<path class="st2" d="M184.68,182.15c-0.45-0.67-0.39-1.07-0.19-1.38l0.61-0.91c0.42-0.6,0.85-1.18,1.31-1.75
			c0.45-0.57,0.95-1.11,1.44-1.64c0.48-0.5,0.94-1.01,1.43-1.5c1.01-0.99,1.9-1.95,2.65-3.07c0.78-1.1,1.42-2.3,2-3.57l0.59,0.16
			c-0.16,1.44-0.59,2.85-1.18,4.2c-0.31,0.67-0.66,1.32-1.05,1.96c-0.4,0.65-0.85,1.15-1.28,1.74c-0.43,0.57-0.88,1.12-1.32,1.68
			c-0.42,0.53-0.82,1.08-1.21,1.63c-0.4,0.55-0.78,1.1-1.14,1.67l-0.53,0.86c-0.18,0.29-0.47,0.49-1.28,0.43L184.68,182.15z"/>
	</g>
	<path class="st3" d="M156.4,68.96c8.2-1.58,16.2-4.19,23.75-7.75c0.73,3.3-0.18,6.92-2.37,9.48c-1.73,2.02-4.17,3.4-5.57,5.66
		c-3.39,6.99,10.48-1.73,14.64-3c0.63,1.95-0.73,6.82-4.87,7.89c-3.62,0.93-6.93,7.06-4.22,9.49c2.19,1.62,6.74,0.41,12.74-13.34
		c1.8-4.11,3.15-8.4,4.86-12.55c0.12-0.3,0.27-0.62,0.56-0.77c0.65-0.33,1.3,0.46,1.6,1.12c1.43,3.17,2.46,6.48,3.27,9.86
		c-1.1,6.14-1.94,10.53-4.55,18.56c-0.93,2.85-2.11,5.45-4.67,7.03c-3.09,1.91-7.4-1.05-10.66-2.64c-5.93-2.9-10.32-6.59-16.14-9.69
		c-12.49-6.64-15.29-3.72-16.9-6.96c-1.72-3.47-0.5-7.19,1.96-10.78C151.92,69.75,154.18,69.38,156.4,68.96z"/>
</g>
</svg>
